solid AssimpScene
 facet normal -1 0 0
  outer loop
  vertex -0.01070000045001507 0.01850000023841858 0.02899999916553497
  vertex -0.01070000045001507 0.01850000023841858 0.03599999845027924
  vertex -0.01070000045001507 0.03905000165104866 0.02899999916553497
  endloop
 endfacet

 facet normal -1 0 0
  outer loop
  vertex -0.01070000045001507 0.03905000165104866 0.02899999916553497
  vertex -0.01070000045001507 0.01850000023841858 0.03599999845027924
  vertex -0.01070000045001507 0.03905000165104866 0.03599999845027924
  endloop
 endfacet

 facet normal 1 0 0
  outer loop
  vertex 0.01049999985843897 0.01850000023841858 0.03599999845027924
  vertex 0.01049999985843897 0.01850000023841858 0.02899999916553497
  vertex 0.01049999985843897 0.03905000165104866 0.02899999916553497
  endloop
 endfacet

 facet normal 1 0 0
  outer loop
  vertex 0.01049999985843897 0.01850000023841858 0.03599999845027924
  vertex 0.01049999985843897 0.03905000165104866 0.02899999916553497
  vertex 0.01049999985843897 0.03905000165104866 0.03599999845027924
  endloop
 endfacet

 facet normal 0 -1 0
  outer loop
  vertex 0.01049999985843897 0.01850000023841858 0.02899999916553497
  vertex 0.01049999985843897 0.01850000023841858 0.03599999845027924
  vertex -0.01070000045001507 0.01850000023841858 0.02899999916553497
  endloop
 endfacet

 facet normal 0 -1 0
  outer loop
  vertex -0.01070000045001507 0.01850000023841858 0.02899999916553497
  vertex 0.01049999985843897 0.01850000023841858 0.03599999845027924
  vertex -0.01070000045001507 0.01850000023841858 0.03599999845027924
  endloop
 endfacet

 facet normal 0 1 0
  outer loop
  vertex 0.01049999985843897 0.03905000165104866 0.03599999845027924
  vertex 0.01049999985843897 0.03905000165104866 0.02899999916553497
  vertex -0.01070000045001507 0.03905000165104866 0.02899999916553497
  endloop
 endfacet

 facet normal 0 1 0
  outer loop
  vertex 0.01049999985843897 0.03905000165104866 0.03599999845027924
  vertex -0.01070000045001507 0.03905000165104866 0.02899999916553497
  vertex -0.01070000045001507 0.03905000165104866 0.03599999845027924
  endloop
 endfacet

 facet normal 0 0 -1
  outer loop
  vertex -0.01070000045001507 0.03905000165104866 0.02899999916553497
  vertex 0.01049999985843897 0.03905000165104866 0.02899999916553497
  vertex -0.01070000045001507 0.01850000023841858 0.02899999916553497
  endloop
 endfacet

 facet normal 0 0 -1
  outer loop
  vertex -0.01070000045001507 0.01850000023841858 0.02899999916553497
  vertex 0.01049999985843897 0.03905000165104866 0.02899999916553497
  vertex 0.01049999985843897 0.01850000023841858 0.02899999916553497
  endloop
 endfacet

 facet normal 0 0 1
  outer loop
  vertex 0.01049999985843897 0.03905000165104866 0.03599999845027924
  vertex -0.01070000045001507 0.03905000165104866 0.03599999845027924
  vertex -0.01070000045001507 0.01850000023841858 0.03599999845027924
  endloop
 endfacet

 facet normal 0 0 1
  outer loop
  vertex 0.01049999985843897 0.03905000165104866 0.03599999845027924
  vertex -0.01070000045001507 0.01850000023841858 0.03599999845027924
  vertex 0.01049999985843897 0.01850000023841858 0.03599999845027924
  endloop
 endfacet

 facet normal 1 0 0
  outer loop
  vertex 0.01049999985843897 0.03905000165104866 0.03150000050663948
  vertex 0.01049999985843897 0.03905000165104866 0.02500000037252903
  vertex 0.01049999985843897 0.06004999950528145 0.03150000050663948
  endloop
 endfacet

 facet normal 1 0 0
  outer loop
  vertex 0.01049999985843897 0.06004999950528145 0.03150000050663948
  vertex 0.01049999985843897 0.03905000165104866 0.02500000037252903
  vertex 0.01049999985843897 0.06004999950528145 0.02500000037252903
  endloop
 endfacet

 facet normal -1 0 0
  outer loop
  vertex -0.01059999968856573 0.03905000165104866 0.02500000037252903
  vertex -0.01059999968856573 0.03905000165104866 0.03150000050663948
  vertex -0.01059999968856573 0.06004999950528145 0.03150000050663948
  endloop
 endfacet

 facet normal -1 0 0
  outer loop
  vertex -0.01059999968856573 0.03905000165104866 0.02500000037252903
  vertex -0.01059999968856573 0.06004999950528145 0.03150000050663948
  vertex -0.01059999968856573 0.06004999950528145 0.02500000037252903
  endloop
 endfacet

 facet normal 0 -1 0
  outer loop
  vertex 0.01049999985843897 0.03905000165104866 0.03150000050663948
  vertex -0.01059999968856573 0.03905000165104866 0.03150000050663948
  vertex 0.01049999985843897 0.03905000165104866 0.02500000037252903
  endloop
 endfacet

 facet normal 0 -1 0
  outer loop
  vertex -0.01059999968856573 0.03905000165104866 0.03150000050663948
  vertex -0.01059999968856573 0.03905000165104866 0.02500000037252903
  vertex 0.01049999985843897 0.03905000165104866 0.02500000037252903
  endloop
 endfacet

 facet normal 0 1 0
  outer loop
  vertex -0.01059999968856573 0.06004999950528145 0.03150000050663948
  vertex 0.01049999985843897 0.06004999950528145 0.03150000050663948
  vertex 0.01049999985843897 0.06004999950528145 0.02500000037252903
  endloop
 endfacet

 facet normal 0 1 0
  outer loop
  vertex -0.01059999968856573 0.06004999950528145 0.02500000037252903
  vertex -0.01059999968856573 0.06004999950528145 0.03150000050663948
  vertex 0.01049999985843897 0.06004999950528145 0.02500000037252903
  endloop
 endfacet

 facet normal 0 0 1
  outer loop
  vertex 0.01049999985843897 0.06004999950528145 0.03150000050663948
  vertex -0.01059999968856573 0.06004999950528145 0.03150000050663948
  vertex 0.01049999985843897 0.03905000165104866 0.03150000050663948
  endloop
 endfacet

 facet normal 0 0 1
  outer loop
  vertex 0.01049999985843897 0.03905000165104866 0.03150000050663948
  vertex -0.01059999968856573 0.06004999950528145 0.03150000050663948
  vertex -0.01059999968856573 0.03905000165104866 0.03150000050663948
  endloop
 endfacet

 facet normal 0 0 -1
  outer loop
  vertex -0.01059999968856573 0.06004999950528145 0.02500000037252903
  vertex 0.01049999985843897 0.06004999950528145 0.02500000037252903
  vertex 0.01049999985843897 0.03905000165104866 0.02500000037252903
  endloop
 endfacet

 facet normal 0 0 -1
  outer loop
  vertex -0.01059999968856573 0.06004999950528145 0.02500000037252903
  vertex 0.01049999985843897 0.03905000165104866 0.02500000037252903
  vertex -0.01059999968856573 0.03905000165104866 0.02500000037252903
  endloop
 endfacet

endsolid AssimpScene
